<?xml version="1.0" encoding="utf-8"?>
<!-- Generator: Adobe Illustrator 17.1.0, SVG Export Plug-In . SVG Version: 6.00 Build 0)  -->
<!DOCTYPE svg PUBLIC "-//W3C//DTD SVG 1.1//EN" "http://www.w3.org/Graphics/SVG/1.1/DTD/svg11.dtd">
<svg version="1.1" xmlns="http://www.w3.org/2000/svg" xmlns:xlink="http://www.w3.org/1999/xlink" x="0px" y="0px"
	 viewBox="0 0 2000 2000" enable-background="new 0 0 2000 2000" xml:space="preserve">
<g id="Layer_1" display="none">
	
		<image display="inline" overflow="visible" width="607" height="130" xlink:href="logo-v2.png"  transform="matrix(1 0 0 1 697 778)">
	</image>
</g>
<g id="Layer_2">
	<g id="logo">
		<polygon display="none" fill="#034475" stroke="#034475" stroke-miterlimit="10" points="697,1055.3 739.5,981.8 761.3,1018.5 
			783,1055.3 728.8,1055.3 749.8,1018.5 740,1002.5 709.5,1055.3 		"/>
		<polygon display="none" fill="#034475" stroke="#034475" stroke-miterlimit="10" points="798.8,956.3 856.3,1055.3 869,1055.3 
			798.8,936 755.3,1008.4 761.3,1018.5 		"/>
		<polygon display="none" fill="#034475" points="755.3,1029.8 765.5,1045.3 746.3,1045.3 		"/>
		<polygon fill="#034475" points="697,1055.3 739.5,981.8 783,1055.3 728.8,1055.3 798.8,936 869,1055.3 856.3,1055.3 798,957.5 
			746.7,1044.5 765,1044.5 740,1002.5 709.5,1055.3 		"/>
	</g>
	<g>
		<path fill="#034475" d="M895.3,995.6l-3.4,12.3h-11.1l14.6-47.9h14.2l14.9,47.9h-11.7l-3.7-12.3H895.3z M907.5,987.5l-3-10.2
			c-0.9-2.8-1.7-6.4-2.4-9.2h-0.1c-0.7,2.8-1.4,6.5-2.2,9.2l-2.8,10.2H907.5z"/>
		<path fill="#034475" d="M968.1,960.1v47.9h-10.8v-39h-10.9v11.4c0,12.3-1.6,21.8-8.8,26.1c-2.4,1.3-5.7,2.3-9.5,2.3l-1.3-8.7
			c2.3-0.3,4.3-1.3,5.5-2.6c2.9-3,3.6-9.2,3.6-16.4v-20.9H968.1z"/>
		<path fill="#034475" d="M988.3,960.1v16.7c1.5-0.2,3.8-0.4,5.8-0.4c10.3,0,19,4.9,19,15.5c0,4.6-1.5,8-3.8,10.4
			c-4.6,4.7-12.6,6.1-20,6.1c-5.4,0-9.3-0.4-11.7-0.7v-47.6H988.3z M988.3,1000c1.2,0.2,2.4,0.3,4,0.3c5.3,0,9.5-2.6,9.5-8
			c0-5.5-4.2-7.7-9.4-7.7c-1.6,0-2.8,0.1-4.1,0.3V1000z"/>
		<path fill="#034475" d="M1048.5,958v4.2c10.3,0.8,20.4,6.7,20.4,21.7c0,14.8-9.9,20.7-20.6,21.7v4.3h-10.1v-4.3
			c-10.4-0.8-20.4-6.7-20.4-21.4c0-15.2,11.3-21.2,20.6-22V958H1048.5z M1038.3,969.6c-4.3,0.6-9.7,4.2-9.7,14.3
			c0,9.4,5.3,13.5,9.7,14V969.6z M1048.4,998c4.3-0.4,9.7-4,9.7-14.1c0-10.1-5.1-13.6-9.7-14.2V998z"/>
		<path fill="#034475" d="M1085.7,995.6l-3.4,12.3h-11.1l14.6-47.9h14.2l14.9,47.9h-11.7l-3.7-12.3H1085.7z M1097.8,987.5l-3-10.2
			c-0.9-2.8-1.7-6.4-2.4-9.2h-0.1c-0.7,2.8-1.4,6.5-2.2,9.2l-2.8,10.2H1097.8z"/>
		<path fill="#FF2200" d="M1161.6,989.6c-0.2-5.8-0.4-12.7-0.4-19.7h-0.1c-1.6,6.1-3.6,12.9-5.4,18.5l-5.8,18.7h-8.4l-5.1-18.5
			c-1.6-5.7-3.1-12.5-4.3-18.7h-0.1c-0.2,6.5-0.5,13.8-0.8,19.8l-0.9,18.2h-10l3.1-47.9h14.4l4.7,16c1.6,5.5,3,11.5,4,17.1h0.3
			c1.3-5.5,2.9-11.9,4.5-17.2l5-15.9h14.2l2.6,47.9h-10.5L1161.6,989.6z"/>
		<path fill="#FF2200" d="M1192.3,995.6l-3.4,12.3h-11.1l14.6-47.9h14.2l14.9,47.9h-11.7l-3.7-12.3H1192.3z M1204.5,987.5l-3-10.2
			c-0.9-2.8-1.7-6.4-2.4-9.2h-0.1c-0.7,2.8-1.4,6.5-2.2,9.2l-2.8,10.2H1204.5z"/>
		<path fill="#FF2200" d="M1238.5,960.1v20h1l13.1-20h13.1l-16.7,21.3c6.2,1.5,8.9,5.8,10.9,11.5c1.7,5.1,3.3,10.3,5.5,15.1h-11.6
			c-1.6-3.3-2.6-7-3.7-10.5c-1.6-5.4-3.8-9.5-9.7-9.5h-2.1v20h-10.7v-47.9H1238.5z"/>
		<path fill="#FF2200" d="M1304.6,1006.6c-1.9,0.9-6.5,2.1-12.2,2.1c-16.5,0-25.1-10.4-25.1-24c0-16.3,11.6-25.3,26.1-25.3
			c5.6,0,9.9,1.1,11.8,2.1l-2.3,8.5c-2.1-0.9-5.2-1.8-9.1-1.8c-8.5,0-15.2,5.2-15.2,15.8c0,9.6,5.7,15.6,15.3,15.6
			c3.3,0,6.9-0.6,9.1-1.6L1304.6,1006.6z"/>
	</g>
	<g>
		<path fill="#034475" d="M886.8,1034.4v9c0,3.3-0.1,5.5-0.3,8.5l0.1,0c1.3-2.6,2-4.1,3.5-6.6l6.6-11h4.5v21.3h-3.7v-9
			c0-3.5,0.1-5.3,0.3-8.8h-0.1c-1.4,2.8-2.3,4.5-3.6,6.6c-2,3.3-4.4,7.4-6.6,11.1h-4.5v-21.3H886.8z"/>
		<path fill="#034475" d="M914.3,1034.4v8.6h10.1v-8.6h3.9v21.3h-3.9v-9.6h-10.1v9.6h-3.9v-21.3H914.3z"/>
		<path fill="#034475" d="M951.9,1034.4v3h-6.6v18.3h-3.9v-18.3h-6.6v-3H951.9z"/>
		<path fill="#034475" d="M959.8,1045.8c0.1,5.2,3.4,7.4,7.3,7.4c2.8,0,4.5-0.5,5.9-1.1l0.7,2.8c-1.4,0.6-3.7,1.4-7.1,1.4
			c-6.6,0-10.5-4.4-10.5-10.8c0-6.4,3.8-11.4,10-11.4c7,0,8.8,6.1,8.8,10c0,0.8,0,1.4-0.1,1.8H959.8z M971.2,1043
			c0-2.4-1-6.2-5.4-6.2c-4,0-5.6,3.6-5.9,6.2H971.2z"/>
		<path fill="#034475" d="M982.7,1041.4c0-2.7-0.1-4.9-0.2-7h3.4l0.2,3.7h0.1c1.5-2.6,4.1-4.1,7.6-4.1c5.2,0,9.1,4.4,9.1,10.8
			c0,7.7-4.7,11.4-9.7,11.4c-2.8,0-5.3-1.2-6.6-3.3h-0.1v11.6h-3.8V1041.4z M986.5,1047.1c0,0.6,0,1.1,0.2,1.6
			c0.7,2.7,3,4.5,5.8,4.5c4.1,0,6.5-3.3,6.5-8.2c0-4.2-2.2-7.9-6.3-7.9c-2.6,0-5.1,1.8-5.9,4.8c-0.1,0.5-0.3,1.1-0.3,1.5V1047.1z"/>
		<path fill="#034475" d="M1014.5,1034.4v8.6h10.1v-8.6h3.9v21.3h-3.9v-9.6h-10.1v9.6h-3.9v-21.3H1014.5z"/>
		<path fill="#034475" d="M1039.9,1045.8c0.1,5.2,3.4,7.4,7.3,7.4c2.8,0,4.5-0.5,5.9-1.1l0.7,2.8c-1.4,0.6-3.7,1.4-7.1,1.4
			c-6.6,0-10.5-4.4-10.5-10.8c0-6.4,3.8-11.4,10-11.4c7,0,8.8,6.1,8.8,10c0,0.8,0,1.4-0.1,1.8H1039.9z M1051.2,1043
			c0-2.4-1-6.2-5.4-6.2c-4,0-5.6,3.6-5.9,6.2H1051.2z"/>
		<path fill="#034475" d="M1077,1034.4v3h-6.6v18.3h-3.9v-18.3h-6.6v-3H1077z"/>
		<path fill="#034475" d="M1091.2,1042.4v2.8h-10.9v-2.8H1091.2z"/>
		<path fill="#034475" d="M1113.6,1050.6c0,1.8,0.1,3.7,0.3,5.1h-3.5l-0.3-2.7h-0.1c-1.2,1.7-3.5,3.2-6.5,3.2c-4.3,0-6.5-3-6.5-6.1
			c0-5.1,4.6-8,12.8-7.9v-0.4c0-1.7-0.5-4.9-4.8-4.9c-2,0-4.1,0.6-5.6,1.6l-0.9-2.6c1.8-1.1,4.4-1.8,7-1.8c6.5,0,8.1,4.4,8.1,8.7
			V1050.6z M1109.9,1044.9c-4.2-0.1-9,0.7-9,4.8c0,2.6,1.7,3.7,3.6,3.7c2.8,0,4.6-1.8,5.2-3.6c0.1-0.4,0.2-0.9,0.2-1.2V1044.9z"/>
		<path fill="#034475" d="M1135.9,1034.4v3.1h-9.2v18.2h-3.8v-21.3H1135.9z"/>
		<path fill="#034475" d="M1144.1,1045.8c0.1,5.2,3.4,7.4,7.3,7.4c2.8,0,4.5-0.5,5.9-1.1l0.7,2.8c-1.4,0.6-3.7,1.4-7.1,1.4
			c-6.6,0-10.5-4.4-10.5-10.8c0-6.4,3.8-11.4,10-11.4c7,0,8.8,6.1,8.8,10c0,0.8,0,1.4-0.1,1.8H1144.1z M1155.4,1043
			c0-2.4-1-6.2-5.4-6.2c-4,0-5.6,3.6-5.9,6.2H1155.4z"/>
		<path fill="#034475" d="M1170.7,1034.4v8.6h10.1v-8.6h3.9v21.3h-3.9v-9.6h-10.1v9.6h-3.9v-21.3H1170.7z"/>
		<path fill="#034475" d="M1208.2,1034.4v3h-6.6v18.3h-3.9v-18.3h-6.6v-3H1208.2z"/>
		<path fill="#034475" d="M1229.2,1055c-1,0.5-3.3,1.2-6.1,1.2c-6.4,0-10.6-4.4-10.6-10.9c0-6.6,4.5-11.4,11.4-11.4
			c2.3,0,4.3,0.6,5.4,1.1l-0.9,2.9c-0.9-0.5-2.4-1-4.5-1c-4.9,0-7.5,3.7-7.5,8.1c0,4.9,3.2,8,7.4,8c2.2,0,3.7-0.5,4.8-1L1229.2,1055
			z"/>
		<path fill="#034475" d="M1251.8,1034.4v3h-6.6v18.3h-3.9v-18.3h-6.6v-3H1251.8z"/>
		<path fill="#034475" d="M1258.1,1034.7c1.5-0.3,4.3-0.5,6.8-0.5c3.6,0,9.5,0.6,9.5,5.3c0,2.6-2,4.3-4.4,4.8v0.1
			c3.1,0.4,5.4,2.2,5.4,5.2c0,5.6-7,6.3-11.2,6.3c-2.4,0-4.9-0.2-6-0.3V1034.7z M1261.8,1053.2c1.1,0.1,1.9,0.1,3.1,0.1
			c2.6,0,6.5-0.6,6.5-3.7c0-3.1-3.1-3.7-6.8-3.7h-2.8V1053.2z M1261.8,1043.4h2.9c2.9,0,5.8-0.8,5.8-3.4c0-2.1-1.8-3.1-5.7-3.1
			c-1.3,0-2.1,0.1-3,0.2V1043.4z"/>
		<path fill="#034475" d="M1302.5,1044.9c0,7.9-5.5,11.3-10.6,11.3c-5.7,0-10.2-4.2-10.2-11c0-7.1,4.7-11.3,10.6-11.3
			C1298.4,1034,1302.5,1038.4,1302.5,1044.9z M1285.6,1045.1c0,4.7,2.6,8.2,6.4,8.2c3.7,0,6.5-3.5,6.5-8.3c0-3.6-1.8-8.1-6.4-8.1
			C1287.6,1036.9,1285.6,1041.1,1285.6,1045.1z"/>
	</g>
	<g display="none">
	</g>
</g>
</svg>
